<svg width="153" height="30" xmlns="http://www.w3.org/2000/svg"><defs><linearGradient x1="60%" y1="-40%" x2="40%" y2="140%" id="a"><stop stop-color="#FFC369" offset="0%"/><stop stop-color="#FF7A56" offset="100%"/></linearGradient></defs><g fill="none" fill-rule="evenodd"><path d="M127 7h7a5 5 0 0 1 2.209 9.487L139 23h-3l-2.571-6H130v6h-3V7zm-41 3v13h-3V10h-5V7h13v3h-5zm44 0v4h4a2 2 0 0 0 0-4h-4zm-73 8.413V7h3v16h-3l-8-11.628V23h-3V7h3l8 11.413zM67 14h6l-1 3h-5v3h7v3H64V7h10v3h-7v4zm79 0h6l-1 3h-5v3h7v3h-10V7h10v3h-7v4zm-30 9a8 8 0 1 1 0-16 8 8 0 0 1 0 16zm0-3a5 5 0 1 0 0-10 5 5 0 0 0 0 10zm-12.113-9a4.894 4.894 0 0 0-2.97-1c-2.732 0-4.948 2.239-4.948 5s2.216 5 4.949 5a4.894 4.894 0 0 0 2.97-1L106 21.135A7.838 7.838 0 0 1 100.918 23C96.545 23 93 19.418 93 15s3.545-8 7.918-8c1.934 0 3.707.7 5.082 1.865L103.887 11zM30 3v8h-3V3h-8V0h8a3 3 0 0 1 3 3zM0 27v-8h3v8h8v3H3a3 3 0 0 1-3-3z" fill="#2E2F33"/><path d="M2.844 0l24.312 25.694c1.125 1.19 1.125 3.117 0 4.306L2.844 4.306c-1.125-1.19-1.125-3.117 0-4.306z" fill="url(#a)"/></g></svg>